<?xml version="1.0" encoding="UTF-8"?>
<svg width="334px" height="80px" viewBox="0 0 334 80" version="1.1" xmlns="http://www.w3.org/2000/svg" xmlns:xlink="http://www.w3.org/1999/xlink">
    <!-- Generator: Sketch 54.1 (76490) - https://sketchapp.com -->
    <title>Group 2</title>
    <desc>Created with Sketch.</desc>
    <g id="Page-1" stroke="none" stroke-width="1" fill="none" fill-rule="evenodd">
        <g id="Artboard-Copy-10" transform="translate(-756.000000, -37.000000)" fill="#FE0000" fill-rule="nonzero">
            <g id="Group-2" transform="translate(756.000000, 18.000000)">
                <path d="M36.88,54.798 L25.258,27.576 L14.416,54.954 L27.676,54.876 L36.88,54.876 L36.88,54.798 Z M37.27,55.656 L28.144,55.89 C24.4,55.89 16.444,55.656 14.182,55.656 L12.856,58.932 C11.608,62.286 10.048,67.122 10.048,70.554 C10.048,73.128 11.53,74.376 14.416,74.376 C15.04,74.376 16.288,74.142 16.6,74.142 C16.99,74.142 17.146,74.298 17.146,74.532 C17.146,74.766 17.068,75 16.21,75 C14.806,75 8.644,74.844 7.318,74.844 C6.304,74.844 2.794,75 0.844,75 C0.532,75 0.376,74.844 0.376,74.61 C0.376,74.376 0.532,74.298 0.844,74.298 L1.156,74.298 C3.262,74.298 5.134,72.738 6.772,69.618 C8.722,66.264 10.672,61.896 11.92,58.542 L26.974,20.946 C27.052,20.79 27.208,20.712 27.52,20.712 L28.3,20.712 C28.69,20.712 29.002,20.79 29.08,20.946 L43.276,54.798 C50.998,73.128 52.246,74.298 55.912,74.298 L56.536,74.298 C56.926,74.298 57.082,74.376 57.082,74.61 C57.082,74.844 56.926,75 56.614,75 C54.352,75 49.906,74.766 48.736,74.766 C47.488,74.766 41.56,75 39.298,75 C38.674,75 38.44,74.298 39.064,74.298 L40.702,74.298 C43.978,74.298 44.758,72.972 37.27,55.656 Z M75.204,61.974 C81.522,61.974 85.032,57.528 85.032,49.338 C85.032,42.708 81.678,36.156 75.516,36.156 C68.886,36.156 65.532,40.29 65.532,48.636 C65.532,56.202 68.652,61.974 75.204,61.974 Z M74.502,94.422 L74.814,94.422 C84.564,94.422 94.548,89.196 94.548,82.098 C94.548,77.106 90.648,75.312 81.834,75.312 L71.694,75.312 C64.908,77.418 60.384,81.396 60.384,85.764 C60.384,91.38 65.532,94.422 74.502,94.422 Z M93.378,37.248 C91.038,37.248 83.784,35.844 78.168,35.844 L78.168,36 C86.28,37.17 90.804,42.24 90.804,49.338 C90.804,57.606 83.784,62.754 74.346,62.754 L72.942,62.754 C68.262,63.144 63.738,64.314 63.738,66.966 C63.738,70.008 67.248,70.32 74.112,70.32 L84.564,70.32 C93.456,70.32 96.81,74.376 96.81,78.744 C96.81,88.806 82.068,98.712 69.822,98.712 C61.632,98.712 56.952,94.422 56.952,88.806 C56.952,82.8 63.66,77.574 69.978,75.234 C63.738,75 59.604,73.752 59.604,70.008 C59.604,66.498 64.44,63.456 70.68,62.442 C64.05,61.272 59.682,56.982 59.682,49.494 C59.682,41.616 66.858,35.376 75.984,35.376 C83.628,35.376 92.754,32.412 94.626,32.412 C95.484,32.412 96.888,32.646 96.888,33.582 C96.888,34.908 95.562,37.248 93.378,37.248 Z M104.87,64.86 C104.87,69.072 109.238,72.426 112.982,72.426 C117.272,72.426 124.37,64.626 124.994,62.052 C125.072,61.038 125.462,57.294 125.462,50.82 L125.462,49.182 L119.066,51.912 C107.6,56.67 104.87,59.088 104.87,64.86 Z M109.082,75.858 C102.842,75.858 99.41,71.88 99.41,67.122 C99.41,61.896 104.48,56.748 118.91,51.132 L125.384,48.636 C124.994,38.886 122.732,35.922 117.038,35.922 C110.252,35.922 108.614,42.084 106.976,44.58 C106.274,45.594 105.572,45.984 103.466,45.984 C101.594,45.984 100.346,45.36 100.346,44.19 C100.346,43.254 101.126,41.772 103.076,40.524 C106.118,38.496 112.748,35.22 118.286,35.22 C126.008,35.22 131.468,39.198 131.468,49.416 C131.468,54.642 130.844,63.378 130.844,66.498 C130.844,70.944 131.39,73.128 133.028,73.128 C134.354,73.128 136.46,70.476 137.24,68.838 C137.63,68.214 138.566,68.838 138.176,69.462 C137.006,71.256 132.014,75.78 128.972,75.78 C125.93,75.78 124.526,73.752 124.526,70.242 C124.526,68.136 124.604,65.484 124.838,63.846 C122.732,67.434 114.542,75.858 109.082,75.858 Z M154.426,36.546 C155.752,35.688 157.234,35.22 158.872,35.22 C160.744,35.22 162.382,35.61 162.382,36.624 C162.382,37.872 161.212,40.68 158.482,40.68 L155.596,40.68 C149.98,40.68 149.434,41.538 149.434,48.168 L149.434,74.298 L154.192,74.298 C154.816,74.298 154.816,75 154.192,75 C153.568,75 148.498,74.844 147.25,74.844 C146.002,74.844 141.556,75 139.294,75 C138.67,75 138.67,74.298 139.294,74.298 C143.038,74.298 143.662,73.83 143.662,65.718 L143.662,45.594 C143.662,43.332 141.868,41.304 140.074,39.666 C139.84,39.432 139.84,39.276 140.074,39.198 C141.556,38.652 144.13,37.248 145.456,35.922 C145.534,35.844 145.69,35.844 145.924,36 C147.25,37.248 148.966,40.134 149.278,43.176 C150.214,39.744 152.32,38.028 154.426,36.546 Z" id="Agar"></path>
                <path d="M189.55408,53.1712 L211.17984,53.1712 L200.55936,25.00384 L189.55408,53.1712 Z M197.86576,19.77056 L203.71472,19.77056 L225.26352,74.72 L219.64544,74.72 L212.94992,57.63488 L187.93792,57.63488 L181.31936,74.72 L175.77824,74.72 L197.86576,19.77056 Z M263.538293,71.48768 C263.538293,74.4121746 263.21763,77.0544415 262.576293,79.41456 C261.934957,81.7746785 260.92166,83.7756185 259.536373,85.41744 C258.151086,87.0592615 256.342544,88.3162623 254.110693,89.18848 C251.878842,90.0606977 249.146789,90.4968 245.914453,90.4968 C243.913483,90.4968 241.963849,90.2659223 240.065493,89.80416 C238.167137,89.3423977 236.461207,88.6241115 234.947653,87.64928 C233.434099,86.6744485 232.177098,85.4302742 231.176613,83.91672 C230.176128,82.4031658 229.598934,80.5946239 229.445013,78.49104 L234.293493,78.49104 C234.550028,79.9789408 235.050263,81.223115 235.794213,82.2236 C236.538164,83.224085 237.436021,84.0321569 238.487813,84.64784 C239.539605,85.2635231 240.70682,85.7124519 241.989493,85.99464 C243.272166,86.2768281 244.580473,86.41792 245.914453,86.41792 C250.429462,86.41792 253.687403,85.1352662 255.688373,82.56992 C257.689343,80.0045738 258.689813,76.3105308 258.689813,71.48768 L258.689813,66.10048 L258.535893,66.10048 C257.407141,68.5632123 255.752517,70.5384992 253.571973,72.0264 C251.391429,73.5143008 248.838948,74.25824 245.914453,74.25824 C242.733424,74.25824 240.014198,73.7323519 237.756693,72.68056 C235.499189,71.6287681 233.63934,70.1793692 232.177093,68.33232 C230.714846,66.4852708 229.650243,64.3175858 228.983253,61.8292 C228.316263,59.3408142 227.982773,56.6857208 227.982773,53.86384 C227.982773,51.1445731 228.380396,48.5664389 229.175653,46.12936 C229.97091,43.6922811 231.125299,41.5630758 232.638853,39.74168 C234.152407,37.9202842 236.025082,36.4837119 238.256933,35.43192 C240.488784,34.3801281 243.041265,33.85424 245.914453,33.85424 C247.402354,33.85424 248.800447,34.0594646 250.108773,34.46992 C251.4171,34.8803754 252.609968,35.4575696 253.687413,36.20152 C254.764859,36.9454704 255.726849,37.8048485 256.573413,38.77968 C257.419977,39.7545115 258.074131,40.7806346 258.535893,41.85808 L258.689813,41.85808 L258.689813,35.00864 L263.538293,35.00864 L263.538293,71.48768 Z M245.914453,70.17936 C248.018037,70.17936 249.865059,69.7304312 251.455573,68.83256 C253.046088,67.9346888 254.380048,66.7546473 255.457493,65.2924 C256.534939,63.8301527 257.34301,62.1498762 257.881733,60.25152 C258.420456,58.3531638 258.689813,56.40353 258.689813,54.40256 C258.689813,52.4528969 258.458935,50.5032631 257.997173,48.5536 C257.535411,46.6039369 256.791472,44.8338746 255.765333,43.24336 C254.739195,41.6528454 253.418061,40.3701915 251.801893,39.39536 C250.185725,38.4205285 248.223265,37.93312 245.914453,37.93312 C243.605642,37.93312 241.630355,38.4077019 239.988533,39.35688 C238.346712,40.3060581 236.987099,41.5502323 235.909653,43.08944 C234.832208,44.6286477 234.049789,46.3858835 233.562373,48.3612 C233.074957,50.3365165 232.831253,52.3502831 232.831253,54.40256 C232.831253,56.40353 233.087784,58.3531638 233.600853,60.25152 C234.113922,62.1498762 234.909168,63.8301527 235.986613,65.2924 C237.064059,66.7546473 238.423672,67.9346888 240.065493,68.83256 C241.707315,69.7304312 243.656949,70.17936 245.914453,70.17936 Z M272.953066,47.16832 C273.106987,44.8595085 273.594396,42.8585685 274.415306,41.16544 C275.236217,39.4723115 276.352126,38.0870454 277.763066,37.0096 C279.174007,35.9321546 280.82863,35.1369092 282.726986,34.62384 C284.625342,34.1107708 286.728895,33.85424 289.037706,33.85424 C290.782142,33.85424 292.526551,34.020985 294.270986,34.35448 C296.015422,34.687975 297.580259,35.3164754 298.965546,36.24 C300.350833,37.1635246 301.479569,38.459005 302.351786,40.12648 C303.224004,41.793955 303.660106,43.96164 303.660106,46.6296 L303.660106,67.71664 C303.660106,69.6663031 304.60927,70.64112 306.507626,70.64112 C307.072002,70.64112 307.585064,70.5385077 308.046826,70.33328 L308.046826,74.41216 C307.48245,74.5147738 306.982215,74.5917331 306.546106,74.64304 C306.109997,74.6943469 305.558456,74.72 304.891466,74.72 C303.6601,74.72 302.672457,74.553255 301.928506,74.21976 C301.184556,73.886265 300.607362,73.4116831 300.196906,72.796 C299.786451,72.1803169 299.517094,71.4492042 299.388826,70.60264 C299.260559,69.7560758 299.196426,68.8197385 299.196426,67.7936 L299.042506,67.7936 C298.170289,69.0762731 297.285257,70.217835 296.387386,71.21832 C295.489515,72.218805 294.489045,73.05253 293.385946,73.71952 C292.282847,74.38651 291.025847,74.8995715 289.614906,75.25872 C288.203966,75.6178685 286.523689,75.79744 284.574026,75.79744 C282.726977,75.79744 280.995394,75.5793888 279.379226,75.14328 C277.763058,74.7071712 276.352139,74.0145381 275.146426,73.06536 C273.940714,72.1161819 272.99155,70.9104873 272.298906,69.44824 C271.606263,67.9859927 271.259946,66.25441 271.259946,64.25344 C271.259946,61.4828661 271.87562,59.3151812 273.106986,57.75032 C274.338352,56.1854588 275.967323,54.9925908 277.993946,54.17168 C280.02057,53.3507692 282.303694,52.773575 284.843386,52.44008 C287.383079,52.106585 289.961213,51.7859215 292.577866,51.47808 C293.604005,51.3754662 294.501862,51.2472008 295.271466,51.09328 C296.04107,50.9393592 296.682397,50.6700019 297.195466,50.2852 C297.708536,49.9003981 298.106158,49.37451 298.388346,48.70752 C298.670534,48.04053 298.811626,47.1683254 298.811626,46.09088 C298.811626,44.4490585 298.542269,43.1022719 298.003546,42.05048 C297.464824,40.9986881 296.720884,40.1649631 295.771706,39.54928 C294.822528,38.9335969 293.719446,38.5103212 292.462426,38.27944 C291.205407,38.0485588 289.85862,37.93312 288.422026,37.93312 C285.343611,37.93312 282.829609,38.6642327 280.879946,40.12648 C278.930283,41.5887273 277.90416,43.9359838 277.801546,47.16832 L272.953066,47.16832 Z M298.811626,53.01728 L298.657706,53.01728 C298.349865,53.5816562 297.759844,53.9921054 296.887626,54.24864 C296.015409,54.5051746 295.245816,54.6847462 294.578826,54.78736 C292.526549,55.1465085 290.410171,55.4671719 288.229626,55.74936 C286.049082,56.0315481 284.060969,56.4548238 282.265226,57.0192 C280.469484,57.5835762 278.994432,58.3916481 277.840026,59.44344 C276.685621,60.4952319 276.108426,61.9959369 276.108426,63.9456 C276.108426,65.1769662 276.352131,66.2672219 276.839546,67.2164 C277.326962,68.1655781 277.981116,68.9864765 278.802026,69.67912 C279.622937,70.3717635 280.572101,70.8976515 281.649546,71.2568 C282.726992,71.6159485 283.830074,71.79552 284.958826,71.79552 C286.805876,71.79552 288.575938,71.5133362 290.269066,70.94896 C291.962195,70.3845838 293.437247,69.5636854 294.694266,68.48624 C295.951286,67.4087946 296.951756,66.1004877 297.695706,64.56128 C298.439657,63.0220723 298.811626,61.2776631 298.811626,59.328 L298.811626,53.01728 Z M313.998399,35.00864 L318.462079,35.00864 L318.462079,44.3208 L318.615999,44.3208 C319.847366,41.0884638 321.75852,38.6001154 324.349519,36.85568 C326.940519,35.1112446 330.031715,34.3159992 333.623199,34.46992 L333.623199,39.3184 C331.417002,39.2157862 329.416062,39.5107965 327.620319,40.20344 C325.824577,40.8960835 324.272566,41.8837269 322.964239,43.1664 C321.655913,44.4490731 320.642616,45.9754311 319.924319,47.74552 C319.206023,49.5156089 318.846879,51.4524161 318.846879,53.556 L318.846879,74.72 L313.998399,74.72 L313.998399,35.00864 Z" id="Agar"></path>
            </g>
        </g>
    </g>
</svg>